<svg width="27" height="30" viewBox="0 0 27 30" fill="none" xmlns="http://www.w3.org/2000/svg">
<path d="M2.32327 0.0981197C2.1442 0.156713 1.90735 0.262182 1.7976 0.332495C1.49721 0.519995 1.12751 0.953588 0.959985 1.32273L0.804016 1.65671V13.9028V26.1489L0.965762 26.477C1.29503 27.1626 1.87269 27.6196 2.59477 27.7602C2.83161 27.8012 3.70389 27.8188 5.32712 27.8071L7.71865 27.7895L7.8284 27.6489C7.9786 27.4614 7.96704 27.2212 7.8053 27.0688C7.67243 26.9399 7.6551 26.9399 5.30401 26.9399C2.73341 26.9399 2.52545 26.9223 2.1442 26.6235C2.02866 26.5356 1.87269 26.3247 1.78604 26.1606L1.64163 25.8618V13.9087C1.64163 1.99656 1.6474 1.94968 1.76294 1.68601C1.90735 1.35789 2.0691 1.1821 2.36371 1.0239L2.59477 0.894995L9.37077 0.877417L16.141 0.865698V2.26023C16.141 3.02781 16.1699 3.81297 16.2045 4.00632C16.372 4.93797 17.0883 5.66453 18.0184 5.84031C18.2032 5.87547 18.9773 5.90476 19.734 5.90476H21.1089V9.76609C21.1089 11.893 21.1262 13.6743 21.1435 13.727C21.2475 14.0024 21.7732 14.0083 21.9118 13.7387C21.9638 13.645 21.9754 12.5786 21.9638 9.56687L21.9465 5.5239L21.7848 5.20164C21.5479 4.73875 17.227 0.367651 16.8053 0.156713L16.5165 0.0160885L9.5845 0.00436974C3.02224 -0.00734901 2.63521 -0.00148964 2.32327 0.0981197ZM20.4157 4.98484C20.4157 5.01414 19.89 5.02586 19.243 5.02C18.1224 4.99656 18.0588 4.9907 17.7873 4.84422C17.4292 4.65672 17.1519 4.29929 17.071 3.91257C17.0364 3.74851 17.0075 3.13328 17.0075 2.54734V1.48093L18.7116 3.20945C19.6474 4.15867 20.4157 4.9614 20.4157 4.98484Z" fill="white"/>
<path d="M3.95887 5.1782C3.8029 5.38328 3.80868 5.51218 3.9762 5.7114L4.11484 5.87546L7.74834 5.89304C10.267 5.90476 11.4223 5.88718 11.5263 5.84617C11.6707 5.78171 11.8093 5.57078 11.8093 5.41257C11.8093 5.37156 11.7573 5.26609 11.688 5.1782L11.5725 5.02585H7.82344H4.0744L3.95887 5.1782Z" fill="white"/>
<path d="M3.98012 8.21924C3.89925 8.29541 3.83571 8.40088 3.83571 8.45361C3.83571 8.62354 4.00323 8.87549 4.13609 8.9165C4.21119 8.93408 7.48076 8.95166 11.4089 8.95166C18.5488 8.95166 18.5488 8.95166 18.7048 8.82861C18.8954 8.67627 18.9127 8.36572 18.7394 8.18994C18.6239 8.07275 18.5488 8.07275 11.3742 8.07275H4.11876L3.98012 8.21924Z" fill="white"/>
<path d="M8.31461 14.94C8.10665 15.063 7.88714 15.4087 6.1657 18.356C5.10857 20.1607 4.21897 21.7368 4.18431 21.854C4.0399 22.3814 4.31717 22.7739 5.19522 23.272C6.00973 23.7407 6.46608 23.8052 7.06108 23.5415C7.27481 23.4419 7.477 23.4361 7.477 23.5239C7.477 23.5357 7.36146 23.7114 7.22282 23.9107C6.92244 24.3501 6.84157 24.5728 6.84157 24.9947C6.84157 25.7681 7.49433 26.4126 8.2684 26.4126C8.48213 26.4126 8.50524 26.4243 8.56301 26.6353C8.64966 26.9282 8.99048 27.3208 9.28509 27.4732C9.41217 27.5435 9.66634 27.6138 9.8512 27.6255C10.1689 27.6548 10.1805 27.6665 10.244 27.8716C10.3307 28.1704 10.6599 28.5454 10.9719 28.6978C11.2376 28.8267 11.642 28.8736 11.9828 28.8032C12.1734 28.7622 12.1907 28.7739 12.3583 29.0318C12.6182 29.4361 13.0515 29.6646 13.5425 29.6587C13.9295 29.6587 14.1548 29.5767 14.5072 29.3072L14.6862 29.1665L15.2697 29.5181C15.9167 29.9107 16.2575 30.022 16.633 29.9634C17.1702 29.8931 17.6843 29.4654 17.823 28.979C17.8634 28.8384 17.8981 28.7212 17.9038 28.7095C17.9096 28.7036 18.0078 28.7388 18.1233 28.7857C18.3891 28.897 18.9147 28.897 19.1747 28.7915C19.2845 28.7447 19.4635 28.6392 19.5675 28.5572C19.7928 28.3814 20.0701 27.9009 20.0701 27.69C20.0701 27.5493 20.0874 27.5435 20.4051 27.5493C20.5842 27.5493 20.8326 27.5142 20.9597 27.4732C21.3698 27.3325 21.7742 26.8638 21.8782 26.4068C21.9186 26.2544 21.9244 26.2544 22.1786 26.313C22.5309 26.395 23.0046 26.2837 23.3166 26.0435C23.8596 25.6216 24.0444 24.8189 23.7382 24.2154C23.6631 24.0572 23.6112 23.9107 23.6285 23.8814C23.6458 23.8521 23.7671 23.7759 23.8942 23.7114C24.108 23.6001 24.1657 23.5943 24.4603 23.6529C24.9225 23.7466 25.3095 23.6587 25.8698 23.3247C26.615 22.8911 26.8056 22.7388 26.9096 22.522C27.0252 22.2759 27.0309 21.8892 26.9212 21.6782C26.6323 21.1157 23.1548 15.2212 23.0335 15.0923C22.8429 14.8872 22.5483 14.7876 22.2594 14.8286C21.9533 14.8697 20.8904 15.5142 20.6015 15.8306C20.278 16.188 20.1683 16.522 20.1972 17.0669C20.2145 17.4888 20.2087 17.5122 20.0816 17.5474C19.8217 17.6118 19.4 17.5239 18.7703 17.272C17.8634 16.9146 17.6208 16.9087 16.477 17.2075L15.5759 17.4478L15.1195 17.2251C14.6978 17.02 14.6343 17.0083 14.1201 17.0083C13.606 17.0083 13.5309 17.0259 12.8608 17.2896C12.029 17.6118 11.7575 17.6353 11.3127 17.4243L11.0181 17.2837L10.9892 16.8853C10.9372 16.147 10.6773 15.7954 9.77032 15.2388C9.00781 14.77 8.70742 14.7114 8.31461 14.94ZM9.36018 16.0239C9.98984 16.4048 10.1689 16.645 10.1169 17.0493C10.0823 17.3013 7.16506 22.3638 6.92244 22.5864C6.72603 22.7681 6.42565 22.8443 6.17725 22.7739C6.0675 22.7388 5.75556 22.5806 5.48406 22.4165C5.03348 22.1411 4.99882 22.1118 5.06236 21.9947C5.18367 21.7661 8.64388 15.8364 8.70742 15.7603C8.73631 15.7251 8.77097 15.69 8.7883 15.69C8.79985 15.69 9.0598 15.8364 9.36018 16.0239ZM24.2581 18.8306C25.2691 20.5532 26.0951 22.0122 26.1009 22.0591C26.1067 22.1704 25.2922 22.6919 24.9802 22.7798C24.7087 22.856 24.4083 22.7681 24.2177 22.563C24.1311 22.4693 23.7498 21.8599 23.3685 21.1978C22.9815 20.5357 22.6234 19.9614 22.5714 19.9204C22.4269 19.815 22.167 19.8325 22.0341 19.9673C21.8146 20.19 21.8782 20.3775 22.6118 21.6314C22.9931 22.2876 23.3166 22.856 23.3339 22.9087C23.357 22.9673 23.2761 23.0493 23.0797 23.1724L22.7967 23.354L21.3352 22.4751C17.6381 20.2544 16.7543 19.7329 16.6619 19.7329C16.4886 19.7329 16.2575 19.9614 16.2575 20.1314C16.2575 20.3657 16.142 20.7407 16.0149 20.9224C15.8762 21.1216 15.5123 21.315 15.2755 21.315H15.0906L15.1137 20.1841C15.1426 18.5259 15.1888 18.4614 16.6156 18.0864C17.1009 17.9634 17.5688 17.8579 17.6554 17.8579C17.7479 17.8579 17.9674 17.9165 18.1522 17.981C19.452 18.479 19.8044 18.5376 20.3762 18.3618L20.6477 18.2798L20.821 18.5669C21.0117 18.8833 21.2081 19.0005 21.416 18.9185C21.8031 18.7661 21.7915 18.4966 21.3814 17.7935C20.8384 16.8736 20.9192 16.5454 21.832 16.0005C22.1208 15.8306 22.3692 15.69 22.3865 15.69C22.4096 15.69 23.253 17.1021 24.2581 18.8306ZM14.5534 17.9282C14.6343 17.9634 14.692 18.0103 14.6805 18.0279C14.6747 18.0454 14.5765 18.2447 14.4667 18.4732L14.2646 18.8833V20.2427C14.2646 21.7544 14.2646 21.7603 14.7036 22.065C14.8769 22.188 14.952 22.1997 15.3332 22.1822C16.0091 22.1411 16.5117 21.8189 16.8467 21.2154C17.0142 20.9165 17.0316 20.9048 17.1471 20.981C17.2106 21.0279 18.4931 21.7954 19.9834 22.6861C21.4796 23.5825 22.7678 24.3911 22.8602 24.4849C23.0739 24.7193 23.0739 25.0005 22.8486 25.2525C22.5367 25.6099 22.4847 25.5864 20.226 24.2271C18.9783 23.4771 18.158 23.0142 18.0656 23.0142C17.7248 23.0142 17.5226 23.4478 17.7479 23.7056C17.7999 23.77 18.4988 24.2154 19.2902 24.69C20.0874 25.1646 20.7922 25.604 20.8615 25.6685C21.1214 25.9087 21.0868 26.3716 20.7864 26.565C20.4802 26.77 20.3531 26.7173 18.7414 25.7447C17.8981 25.2407 17.1529 24.813 17.0778 24.7896C16.9103 24.7486 16.6734 24.9068 16.6272 25.106C16.5463 25.4224 16.6388 25.5103 17.875 26.2544C18.8916 26.8638 19.0765 26.9986 19.1631 27.1861C19.2556 27.3794 19.2556 27.4204 19.1863 27.6021C19.14 27.7134 19.0418 27.8482 18.9667 27.9009C18.701 28.0884 18.5219 28.0239 17.3955 27.3501C16.8063 26.9986 16.2575 26.6939 16.1766 26.6704C15.9571 26.6177 15.6509 26.9341 15.7087 27.1626C15.7607 27.3853 15.8069 27.4322 16.3268 27.7368C16.8525 28.0532 16.9854 28.1763 17.0258 28.3931C17.0951 28.7739 16.7254 29.1607 16.3615 29.0845C16.1708 29.0435 15.2177 28.481 15.2177 28.4107C15.2177 28.3814 15.2581 28.2642 15.3043 28.1529C15.4083 27.895 15.4141 27.479 15.3217 27.1626C15.2235 26.8228 14.8018 26.3775 14.4725 26.2544L14.201 26.1607L14.253 25.9029C14.2934 25.7271 14.2934 25.5572 14.2414 25.3345C14.1028 24.6958 13.606 24.2564 12.9475 24.1919L12.6009 24.1568L12.52 23.9107C12.4738 23.7759 12.3409 23.565 12.2196 23.4419C11.9019 23.1021 11.6246 22.9849 11.1394 22.9849C10.7755 22.9849 10.6946 23.0083 10.4289 23.1724L10.1285 23.3657L9.9494 23.1548C9.8512 23.0435 9.66634 22.8911 9.53348 22.8267C9.21577 22.6626 8.66699 22.6216 8.37815 22.7447C8.10665 22.856 8.00267 22.8618 7.96224 22.7622C7.94491 22.7036 10.4924 18.2329 10.6195 18.1099C10.631 18.0982 10.7928 18.1626 10.9776 18.2505C11.278 18.397 11.382 18.4146 11.8961 18.4146C12.4449 18.4087 12.5027 18.397 13.1381 18.1392C13.8371 17.8521 14.253 17.7876 14.5534 17.9282ZM9.14645 23.6294C9.34285 23.729 9.46994 24.0103 9.42373 24.2388C9.38329 24.438 8.72475 25.3931 8.56878 25.4751C8.1933 25.6802 7.70806 25.3931 7.70806 24.9595C7.70806 24.772 7.77738 24.6372 8.0951 24.1919C8.56301 23.5298 8.75941 23.4243 9.14645 23.6294ZM11.6015 24.0747C11.8672 24.3736 11.8037 24.5552 11.1163 25.5396C10.787 26.0025 10.4577 26.4536 10.3769 26.5415C10.1862 26.7525 9.91474 26.8052 9.68367 26.6822C9.45839 26.565 9.38329 26.4243 9.38329 26.1489C9.38329 25.9614 9.49305 25.7798 10.0765 24.9478C10.4577 24.4087 10.8275 23.94 10.9025 23.9048C11.1163 23.7935 11.4167 23.8697 11.6015 24.0747ZM13.2074 25.2349C13.3576 25.3697 13.3981 25.4517 13.3981 25.6333C13.3981 25.8325 13.3056 25.9966 12.6875 26.8697C12.2601 27.479 11.9308 27.8833 11.8557 27.9126C11.4744 28.0298 11.1567 27.8833 11.0527 27.5318C10.995 27.3267 11.0007 27.2739 11.1105 27.0864C11.3416 26.6822 12.3987 25.2407 12.52 25.1529C12.7222 25.0122 12.9937 25.0415 13.2074 25.2349ZM14.357 27.2271C14.5996 27.4732 14.5823 27.7193 14.2992 28.147C13.9642 28.6568 13.8082 28.7857 13.5309 28.7857C13.3403 28.7857 13.271 28.7505 13.1323 28.5923C12.8897 28.3169 12.907 28.1001 13.2074 27.6489C13.5136 27.1802 13.6753 27.0572 13.9584 27.0572C14.1317 27.0572 14.2241 27.0982 14.357 27.2271Z" fill="white"/>
</svg>
