<svg width="33" height="30" viewBox="0 0 33 30" fill="none" xmlns="http://www.w3.org/2000/svg">
<g clip-path="url(#clip0_1_210)">
<path d="M14.4902 0.0918617C13.4121 0.47858 12.8789 1.54499 13.2246 2.62311L13.3242 2.92194L9.71484 6.53132L6.10547 10.1407L5.77148 10.0352C5.53125 9.95905 5.32031 9.94147 5.01562 9.95905C4.27148 10.0118 3.71484 10.3868 3.38672 11.0489C3.21094 11.4005 3.19336 11.4883 3.19336 11.9395C3.19922 12.795 3.10547 12.6778 6.45703 16.0176C9.7793 19.334 9.58008 19.1758 10.4883 19.1758C10.916 19.1758 11.0332 19.1524 11.3145 19.0118C11.6895 18.8301 12.0527 18.4669 12.252 18.0801C12.4336 17.7286 12.4746 16.9903 12.334 16.5684L12.2344 16.2637L13.1602 15.3321L14.0918 14.4005L20.0977 20.4005C26.6543 26.9454 26.3086 26.6348 27.1523 26.7813C28.7754 27.0567 30.2344 25.5977 29.959 23.9747C29.8125 23.1309 30.123 23.4766 23.5781 16.92L17.5781 10.9141L18.5098 9.98249L19.4414 9.05671L19.7461 9.15631C20.168 9.29694 20.9062 9.25592 21.2578 9.07428C21.6445 8.87506 22.0078 8.51179 22.1895 8.13679C22.3301 7.85554 22.3535 7.73835 22.3535 7.31061C22.3535 6.40241 22.5117 6.60163 19.1953 3.27936C16.8809 0.959051 16.1953 0.302799 15.9551 0.185612C15.5449 -0.0194664 14.9121 -0.060482 14.4902 0.0918617ZM15.3926 1.21686C15.5801 1.28717 20.9941 6.66608 21.1289 6.91218C21.2344 7.11725 21.2344 7.44538 21.123 7.66804C20.9004 8.08991 20.2969 8.2071 19.8867 7.90241C19.4883 7.60944 14.4258 2.48249 14.3613 2.31256C14.2031 1.89655 14.332 1.49811 14.7012 1.28131C14.9355 1.14655 15.1465 1.12897 15.3926 1.21686ZM15.0176 11.8341L11.4551 15.3965L9.2168 13.1583L6.97266 10.9141L10.5293 7.35749L14.0918 3.79499L16.3301 6.03327L18.5742 8.27741L15.0176 11.8341ZM5.49023 11.1837C5.66016 11.2481 10.7871 16.3106 11.0801 16.709C11.373 17.1075 11.2852 17.6758 10.8809 17.9161C10.6582 18.0508 10.3125 18.0684 10.0898 17.9512C9.84375 17.8165 4.46484 12.4024 4.39453 12.2149C4.30664 11.963 4.32422 11.7755 4.46484 11.5235C4.66406 11.1719 5.08008 11.0313 5.49023 11.1837ZM17.5957 12.5723L18.3984 13.3751L17.4727 14.3008L16.5527 15.2208L15.7324 14.4005L14.9121 13.5801L15.8203 12.6719C16.3184 12.1739 16.7402 11.7637 16.7578 11.7637C16.7754 11.7637 17.1504 12.127 17.5957 12.5723ZM28.6934 23.8223C29.1914 24.8419 28.1602 25.961 27.082 25.5626C26.8418 25.4747 26.1797 24.836 22.1016 20.7637L17.4023 16.0704L18.3223 15.1505L19.248 14.2247L23.8945 18.8653C27.6562 22.627 28.5703 23.5704 28.6934 23.8223Z" fill="white"/>
<path d="M4.1543 20.4591C3.55078 20.6232 3.04102 21.0626 2.76562 21.6603C2.625 21.9532 2.60742 22.0763 2.58984 22.8204L2.56641 23.6583H2.02148C1.25977 23.6583 0.9375 23.7697 0.527344 24.1857C0.00585938 24.7013 0 24.7365 0 27.3263C0 29.6759 0.00585938 29.7521 0.298828 29.9044C0.544922 30.0275 21.7207 30.0275 21.9668 29.9044C22.2598 29.7521 22.2656 29.6759 22.2656 27.3263C22.2656 24.7365 22.2598 24.7013 21.7383 24.1857C21.3281 23.7697 21.0059 23.6583 20.2441 23.6583H19.6992L19.6816 22.8204C19.6582 22.0177 19.6523 21.9708 19.4648 21.5958C19.2422 21.1388 18.873 20.7814 18.4102 20.5646L18.0762 20.4064L11.25 20.3947C5.96484 20.3888 4.36523 20.4005 4.1543 20.4591ZM18.0176 21.6837C18.1465 21.7599 18.3047 21.9181 18.3809 22.047C18.498 22.2521 18.5156 22.3634 18.5156 22.9669V23.6583H16.084C13.4766 23.6583 13.418 23.6642 13.2656 23.9572C13.1074 24.2618 13.2188 24.631 13.5059 24.7599C13.6172 24.8126 14.5781 24.8302 17.2031 24.8302H20.7539L20.9238 25.0001L21.0938 25.17V26.9923V28.8146H11.1328H1.17188V26.9923V25.17L1.3418 25.0001L1.51172 24.8302H5.0625C7.6875 24.8302 8.64844 24.8126 8.75977 24.7599C9.03516 24.6368 9.15234 24.2794 9.01172 23.9806C8.86523 23.6642 8.82422 23.6583 6.18164 23.6583H3.75V22.9669C3.75 22.3634 3.76758 22.2521 3.88477 22.047C3.96094 21.9181 4.11914 21.7599 4.24805 21.6837L4.48242 21.549H11.1328H17.7832L18.0176 21.6837Z" fill="white"/>
<path d="M10.8457 23.7404C10.3359 24.0216 10.5527 24.8302 11.1328 24.8302C11.4317 24.8302 11.7188 24.5431 11.7188 24.2501C11.7188 23.8107 11.2324 23.5236 10.8457 23.7404Z" fill="black"/>
</g>
<defs>
<clipPath id="clip0_1_210">
<rect width="30" height="30" fill="white"/>
</clipPath>
</defs>
</svg>
