<svg width="30" height="30" viewBox="0 0 30 30" fill="none" xmlns="http://www.w3.org/2000/svg">
<path d="M3.77344 0.990234C3.49805 1.06055 2.99414 1.35352 2.83594 1.54102C2.75391 1.64062 2.61914 1.85156 2.53125 2.01562L2.37305 2.31445V12.8906V23.4668L2.53125 23.7656C2.76563 24.2109 2.94141 24.3926 3.35156 24.6152L3.7207 24.8145L9.12891 24.832L14.5313 24.8496V26.8125V28.7754L14.6777 28.916L14.8184 29.0625H21.0938H27.3691L27.5098 28.916L27.6563 28.7754V26.5312C27.6563 24.0996 27.6387 23.918 27.3281 23.3145C27.2461 23.1504 27.0703 22.8984 26.9355 22.752C26.748 22.5469 25.4766 21.5508 24.3281 20.7129C24.3223 20.707 24.3984 20.5195 24.498 20.3027C24.832 19.5645 24.8438 19.4297 24.8438 16.0312C24.8438 13.8047 24.8262 12.8672 24.7734 12.7031C24.7383 12.5742 24.5918 12.3398 24.4512 12.1875C24.1289 11.8242 23.8242 11.7188 23.1328 11.7188C22.6465 11.7188 22.5938 11.707 22.3945 11.5488C22.084 11.3086 21.8555 11.25 21.2051 11.25H20.6309L20.6133 9.21094L20.5957 7.17188L20.4199 6.82031C20.2617 6.51562 19.916 6.16992 17.4082 3.85547C15.252 1.86914 14.502 1.20703 14.2734 1.10156L13.9746 0.966797L8.96484 0.955078C6.21094 0.955078 3.87305 0.966797 3.77344 0.990234ZM13.6055 3.99609L13.623 6.12305L13.7813 6.42188C14.0156 6.86719 14.1914 7.04883 14.6016 7.27148L14.9707 7.4707L16.3945 7.48828L17.8125 7.51172V7.03711V6.56836L16.4766 6.55078L15.1348 6.5332L14.918 6.36328C14.543 6.07617 14.5254 6 14.543 4.14844L14.5605 2.49609L16.9922 4.74023C18.5215 6.15234 19.4707 7.07227 19.5586 7.22461C19.6875 7.45312 19.6875 7.5 19.6875 9.3457V11.2324L19.207 11.2617C18.4043 11.3027 17.8184 11.6895 17.5078 12.375L17.3789 12.6562H15.4863H13.5938V13.125V13.5938H15.4688H17.3438V14.5312V15.4688H13.3594H9.375V15.9375V16.4062H13.3594H17.3438V17.3438V18.2812H15.4688H13.5938V18.75V19.2188H15.4863H17.373L17.4434 19.5703C17.4785 19.7637 17.5898 20.0977 17.6895 20.3145C17.7891 20.5254 17.8652 20.707 17.8594 20.7129C17.8477 20.7129 17.7305 20.8066 17.6016 20.9062L17.3555 21.0938H14.0684H10.7813V21.5625V22.0312H13.4355L16.084 22.0371L15.9082 22.166C15.457 22.4941 15.0469 22.9453 14.8535 23.3379C14.7422 23.5605 14.6484 23.7832 14.6484 23.8242C14.6484 23.8945 13.8105 23.9062 9.26953 23.8945L3.88477 23.877L3.66797 23.707C3.25195 23.3906 3.28125 24.2227 3.28125 12.8965C3.28125 5.77734 3.29883 2.5957 3.3457 2.47852C3.42773 2.26172 3.62109 2.05078 3.83789 1.95703C3.97852 1.89258 4.93945 1.88086 8.80078 1.875H13.5879L13.6055 3.99609ZM21.8848 12.334C22.166 12.6094 22.0371 13.1836 21.5918 13.623C21.1816 14.0332 21.0527 14.0625 19.5469 14.0625H18.2813V13.5117C18.2813 12.9141 18.334 12.709 18.5332 12.4863C18.7852 12.2168 18.9258 12.1934 20.3789 12.1875H21.7441L21.8848 12.334ZM23.7598 12.8027C23.8945 12.9316 23.9063 12.9902 23.9063 13.4766V14.0098L23.7773 13.9395C23.3027 13.6934 22.9688 13.2539 22.9688 12.8789V12.6562H23.291C23.5605 12.6562 23.6426 12.6797 23.7598 12.8027ZM22.7109 14.332C22.998 14.5898 23.3379 14.7891 23.6602 14.8828L23.9063 14.959V17.0156C23.9063 18.6797 23.8887 19.1426 23.8184 19.4238C23.5547 20.4316 22.7695 21.2109 21.7559 21.4746C20.3027 21.8555 18.7617 20.918 18.3691 19.4238C18.2988 19.1426 18.2813 18.6797 18.2813 17.0449V15.0117L19.7344 14.9883L21.1875 14.9707L21.627 14.7539C21.8672 14.6367 22.1543 14.4434 22.2598 14.332C22.3711 14.2148 22.4707 14.1211 22.4766 14.1211C22.4824 14.1211 22.5879 14.2148 22.7109 14.332ZM18.8906 21.7617L19.3184 22.0781L19.5 23.0098L19.6875 23.9355L19.4824 25.957C19.3711 27.0703 19.2773 28.0137 19.2773 28.0488C19.2773 28.1074 18.8555 28.125 17.373 28.125H15.4629L15.4805 26.1387L15.498 24.1582L15.7031 23.7539C15.9082 23.3555 15.9316 23.332 17.168 22.4004C17.8594 21.873 18.4336 21.4453 18.4453 21.4453C18.4512 21.4453 18.6504 21.5859 18.8906 21.7617ZM25.0195 22.4004C26.2559 23.332 26.2793 23.3555 26.4844 23.7539L26.6895 24.1582L26.707 26.1387L26.7246 28.125H26.4844H26.25V27.0996C26.25 26.0859 26.25 26.0684 26.1035 25.9277L25.9629 25.7812H24.3164C22.793 25.7812 22.6758 25.7754 22.6758 25.6758C22.6758 25.623 22.6348 25.2188 22.5879 24.7852L22.5 23.9941L22.6816 23.0215L22.8691 22.043L23.0801 21.9199C23.1973 21.8555 23.3848 21.7207 23.4961 21.6211C23.6074 21.5273 23.7129 21.4453 23.7305 21.4453C23.748 21.4453 24.3281 21.873 25.0195 22.4004ZM21.7383 22.9395L21.6445 23.4082L21.0879 23.4258L20.5254 23.4434L20.4492 23.0156C20.4082 22.7812 20.3672 22.5586 20.3555 22.5293C20.3379 22.4941 20.6074 22.4707 21.082 22.4707H21.832L21.7383 22.9395ZM21.6211 24.4453C21.6211 24.4863 21.7031 25.3008 21.7969 26.25C21.8906 27.1992 21.9727 28.0137 21.9727 28.0488C21.9727 28.1074 21.7559 28.125 21.0938 28.125C20.4316 28.125 20.2148 28.1074 20.2148 28.0488C20.2148 28.0137 20.2969 27.1992 20.3906 26.25C20.4844 25.3008 20.5664 24.4863 20.5664 24.4453C20.5664 24.3926 20.7129 24.375 21.0938 24.375C21.4746 24.375 21.6211 24.3926 21.6211 24.4453ZM25.3125 27.4219V28.125H24.1172H22.9277L22.8867 27.7559C22.8633 27.5566 22.834 27.2402 22.8105 27.0527L22.7754 26.7188H24.0469H25.3125V27.4219Z" fill="white"/>
<path d="M6.09375 4.21875C6.09375 4.61133 6.07617 4.6875 6 4.6875C5.54883 4.6875 4.89258 5.20312 4.75781 5.66016C4.59375 6.21094 4.71094 6.65039 5.12695 7.06055C5.47266 7.40625 5.72461 7.5 6.32227 7.5C6.69141 7.5 6.76172 7.51758 6.88477 7.64648C7.07813 7.83398 7.07813 8.10352 6.88477 8.29102C6.74414 8.4375 6.72656 8.4375 5.71289 8.4375H4.6875V8.90625V9.375H5.39063H6.09375V9.84375V10.3125H6.5625H7.03125V9.78516C7.03125 9.3457 7.04883 9.25781 7.125 9.25781C7.2832 9.25781 7.82227 8.66602 7.89844 8.40234C8.0625 7.85156 7.94531 7.41211 7.5293 7.00195C7.18359 6.65625 6.93164 6.5625 6.33399 6.5625C5.96484 6.5625 5.89453 6.54492 5.77149 6.41602C5.67774 6.32812 5.625 6.20508 5.625 6.09375C5.625 5.98242 5.67774 5.85937 5.77149 5.77148C5.91211 5.625 5.92969 5.625 6.94336 5.625H7.96875V5.15625V4.6875H7.5H7.03125V4.21875V3.75H6.5625H6.09375V4.21875Z" fill="white"/>
<path d="M9.375 4.6875V5.15625H10.5469H11.7188V4.6875V4.21875H10.5469H9.375V4.6875Z" fill="white"/>
<path d="M9.375 7.5V7.96875H11.0156H12.6563V7.5V7.03125H11.0156H9.375V7.5Z" fill="white"/>
<path d="M9.375 10.3125V10.7812H10.3125H11.25V10.3125V9.84375H10.3125H9.375V10.3125Z" fill="white"/>
<path d="M12.6562 10.3125V10.7812H15.2344H17.8125V10.3125V9.84375H15.2344H12.6562V10.3125Z" fill="white"/>
<path d="M5.15625 13.125V13.5938H6.32812H7.5V13.125V12.6562H6.32812H5.15625V13.125Z" fill="white"/>
<path d="M8.4375 13.125V13.5938H10.5469H12.6562V13.125V12.6562H10.5469H8.4375V13.125Z" fill="white"/>
<path d="M5.15625 15.9375V16.4062H6.79688H8.4375V15.9375V15.4688H6.79688H5.15625V15.9375Z" fill="white"/>
<path d="M5.15625 18.75V19.2188H8.90625H12.6562V18.75V18.2812H8.90625H5.15625V18.75Z" fill="white"/>
<path d="M5.15625 21.5625V22.0312H7.5H9.84375V21.5625V21.0938H7.5H5.15625V21.5625Z" fill="white"/>
<path d="M18.75 16.4062V16.875H19.4531H20.1562V16.4062V15.9375H19.4531H18.75V16.4062Z" fill="white"/>
<path d="M22.0312 16.4062V16.875H22.7344H23.4375V16.4062V15.9375H22.7344H22.0312V16.4062Z" fill="white"/>
<path d="M19.3652 17.4902C19.0723 17.7773 19.2773 18.2812 19.6875 18.2812C19.9277 18.2812 20.1562 18.0527 20.1562 17.8125C20.1562 17.5723 19.9277 17.3438 19.6875 17.3438C19.5762 17.3438 19.4531 17.3965 19.3652 17.4902Z" fill="white"/>
<path d="M22.1777 17.4902C21.8848 17.7773 22.0898 18.2812 22.5 18.2812C22.7402 18.2812 22.9687 18.0527 22.9687 17.8125C22.9687 17.5723 22.7402 17.3438 22.5 17.3438C22.3887 17.3438 22.2656 17.3965 22.1777 17.4902Z" fill="white"/>
<path d="M21.0938 19.0723C21.0938 19.5293 20.9355 19.6875 20.4785 19.6875H20.1562V20.1562V20.625H20.4961C21.0059 20.625 21.3398 20.4902 21.6387 20.1562C21.9258 19.834 22.0312 19.5527 22.0312 19.0781V18.75H21.5625H21.0938V19.0723Z" fill="white"/>
</svg>
