<svg width="31" height="31" viewBox="0 0 31 31" fill="none" xmlns="http://www.w3.org/2000/svg">
<path d="M12.8007 0.0751361C12.3976 0.224217 12.0478 0.569457 11.8344 1.04809C11.6091 1.54241 11.5735 1.78564 11.5735 2.92337V3.81H11.4075C11.3126 3.81 11.1052 3.86493 10.9451 3.9277C10.7079 4.02186 10.204 4.0454 8.21204 4.0454H5.77543L5.59757 3.81C5.34265 3.48046 4.96322 3.47261 4.68458 3.80216L4.48894 4.0297L3.21432 4.06109C1.7974 4.10032 1.67883 4.13955 1.25198 4.64957C0.576132 5.45774 0.552418 6.79947 1.1927 7.65472C1.58991 8.18043 1.86262 8.28243 2.87046 8.28243C3.32103 8.28243 3.6886 8.30597 3.6886 8.33736C3.68267 8.37659 3.17282 11.115 2.54439 14.4418L1.40019 20.4835L1.22827 20.5071C0.973341 20.5385 0.807343 20.6718 0.730273 20.8915C0.629488 21.174 0.647274 23.5044 0.753987 24.1713C1.03855 25.976 2.15904 27.506 3.54631 27.9768C4.2103 28.2043 6.13114 28.2043 6.79513 27.9768C8.15276 27.5217 9.21396 26.1172 9.55781 24.3204C9.65267 23.8261 9.67638 23.4495 9.67638 22.3117C9.67638 20.9229 9.67638 20.9072 9.52817 20.7189C9.42146 20.5698 9.32067 20.5228 9.12503 20.5228H8.85825L7.72591 14.4575C7.10341 11.1307 6.59356 8.37659 6.59356 8.33736C6.59356 8.30597 7.03227 8.28243 7.56584 8.28243H8.54404L8.42547 8.72967C8.1824 9.67124 8.1824 11.013 8.41954 12.0251C8.66854 13.0844 8.72782 13.1786 11.6802 17.6118L12.5221 18.875V20.2481C12.5221 21.5192 12.5339 21.6369 12.6406 21.7782C12.7888 21.9743 13.0616 21.9822 13.2394 21.786C13.3758 21.6369 13.3817 21.5977 13.3995 20.2403C13.4113 19.4792 13.4054 18.7338 13.3817 18.5926C13.358 18.3964 13.0556 17.8864 12.2079 16.6231C11.5794 15.6816 10.7494 14.4418 10.37 13.8612C9.38589 12.3782 9.12503 11.6407 9.13096 10.3225C9.13096 9.47508 9.2436 9.03568 9.90759 7.22317C10.5064 5.58328 10.6487 5.3322 11.0992 5.08112C11.2297 5.0105 11.4371 4.97911 11.6921 5.00265C12.0656 5.02619 12.1545 5.08112 14.1109 6.46992C15.2551 7.28594 16.1918 7.99996 16.257 8.10981C16.5238 8.54921 16.3519 8.91014 15.676 9.326C14.6741 9.95371 14.188 9.91448 12.9193 9.09061C12.2197 8.63552 12.0834 8.57275 11.947 8.64336C11.7217 8.74537 11.5913 9.07491 11.6624 9.35738C11.7099 9.53785 11.8759 9.67908 12.6406 10.1891C13.3876 10.6834 13.6426 10.809 13.9983 10.8796C14.6267 11.0051 15.1602 10.9031 15.9013 10.5186C16.008 10.4716 16.5712 11.3268 16.7965 11.8918C16.9269 12.2213 16.9388 12.3468 16.9684 13.9004C16.9922 15.3912 17.0099 15.5795 17.1107 15.7286C17.2589 15.9483 17.5791 15.9483 17.7451 15.7286C17.8636 15.5717 17.8696 15.5089 17.8459 13.8298C17.8162 11.6093 17.8103 11.5858 16.8854 10.0479C16.7669 9.8517 16.7669 9.8517 16.8914 9.67908C17.0811 9.39662 17.2115 9.01214 17.2471 8.60413L17.2827 8.21966L17.4961 8.33736C17.6146 8.40797 17.8755 8.45505 18.083 8.45505C18.3854 8.45505 18.5276 8.41582 18.8063 8.21966L19.1501 7.98427L19.2687 8.19612C19.328 8.30597 19.5236 8.50998 19.7015 8.63552C19.986 8.84737 20.075 8.87091 20.5433 8.87091H21.0591V10.2126C21.0591 11.4602 21.065 11.5622 21.1777 11.6956C21.3437 11.8918 21.6282 11.8761 21.7883 11.6642C21.9128 11.4994 21.9187 11.421 21.9365 9.89094L21.9543 8.28243H23.5254C24.385 8.28243 25.0905 8.30597 25.0905 8.33736C25.0905 8.37659 24.5806 11.1307 23.9522 14.4575L22.8139 20.5228H22.6124C22.4582 20.5228 22.3574 20.5934 22.2033 20.7974L21.9958 21.072L22.0195 22.6256C22.0492 24.3204 22.0907 24.5479 22.4938 25.568C22.7665 26.2506 23.4661 27.1529 24.0056 27.5296C24.7289 28.0239 25.1676 28.1337 26.5133 28.1337C27.4797 28.1337 27.7583 28.1102 28.1377 27.9768C28.8195 27.7493 29.3768 27.3256 29.8629 26.6822C30.3372 26.0466 30.604 25.4974 30.8293 24.6656C30.9775 24.1164 30.9894 24.0222 30.9894 22.5471V21.0014L30.8352 20.7895C30.7463 20.6797 30.5921 20.562 30.4795 20.5306L30.2839 20.4757L29.1397 14.4418C28.5112 11.115 27.9955 8.37659 27.9955 8.33736C27.9955 8.30597 28.3749 8.28243 28.8432 8.28243C29.8096 8.28243 30.1001 8.19612 30.4617 7.78026C31.3213 6.80732 31.1198 4.93988 30.0823 4.27294C29.8214 4.10817 29.7088 4.09247 28.4994 4.06109L27.1951 4.0297L26.9995 3.80216C26.7208 3.47261 26.3414 3.48046 26.0865 3.81L25.9086 4.0454H24.0174H22.1262V3.66877C22.1262 2.07596 20.8338 1.00101 19.7667 1.71503L19.4525 1.92688L19.2746 1.65226C18.8241 0.977468 17.9644 0.773462 17.3301 1.18932L17.0159 1.40117L16.8024 1.1187C16.3044 0.483147 15.5337 0.310527 14.9172 0.710692L14.603 0.914697L14.3836 0.624382C13.9805 0.0908288 13.3461 -0.128869 12.8007 0.0751361ZM13.6307 1.34625C13.7078 1.40902 13.8263 1.57379 13.8856 1.71503C13.9923 1.94257 14.0042 2.11519 14.0042 3.51184V5.06542L13.3995 4.62603C13.0616 4.38279 12.7118 4.1474 12.6228 4.10032L12.4569 4.00616L12.4746 2.89198C12.4924 1.83272 12.4983 1.76995 12.6406 1.57379C12.9371 1.15009 13.3106 1.06378 13.6307 1.34625ZM16.2096 1.9975C16.3044 2.13873 16.3815 2.36627 16.4052 2.57028C16.4527 2.99398 16.4171 6.60331 16.3637 6.67393C16.3459 6.70531 16.014 6.49346 15.6227 6.21884L14.9231 5.70882L14.9053 4.19448C14.8875 2.42904 14.8994 2.24858 15.1128 1.97396C15.4211 1.56595 15.925 1.57379 16.2096 1.9975ZM18.4506 2.27996C18.7826 2.50751 18.8063 2.67228 18.8063 4.71234C18.8063 6.72101 18.7885 6.87009 18.4802 7.13686C18.2786 7.31733 17.8518 7.31733 17.6502 7.13686C17.3419 6.87009 17.3242 6.72101 17.3242 4.71234C17.3242 2.68797 17.3479 2.51535 17.668 2.28781C17.8755 2.13088 18.2312 2.13088 18.4506 2.27996ZM20.9228 2.8449C21.2132 3.09599 21.237 3.27645 21.237 5.18312C21.237 7.15256 21.2132 7.29379 20.8635 7.57626C20.5137 7.85873 20.0572 7.70965 19.8438 7.23887C19.7371 7.01132 19.7252 6.8387 19.7252 5.16743C19.7252 3.45692 19.7311 3.33922 19.8497 3.12737C20.1105 2.64874 20.5611 2.53105 20.9228 2.8449ZM5.24186 6.12468C5.33079 6.59546 5.40786 7.01132 5.40786 7.04271C5.40786 7.08194 4.67273 7.10548 3.77752 7.10548C1.98119 7.10548 1.8804 7.08194 1.70255 6.6347C1.57805 6.31299 1.58991 5.99129 1.74998 5.68529C1.9634 5.26158 2.1294 5.2302 3.68267 5.24589L5.07586 5.26158L5.24186 6.12468ZM9.6171 5.25374C9.6171 5.27727 9.46889 5.70098 9.29103 6.1953L8.97089 7.10548L7.65476 7.08978L6.33271 7.06625L6.16671 6.20315C6.07778 5.72452 6.00071 5.31651 6.00071 5.27727C6.00071 5.24589 6.81292 5.22235 7.8089 5.22235C8.80489 5.22235 9.6171 5.23804 9.6171 5.25374ZM26.4896 5.30866C26.5133 5.36358 26.6023 5.78729 26.6912 6.25022L26.8572 7.10548H24.4917H22.1262V6.21884C22.1262 5.72452 22.144 5.30081 22.1677 5.27727C22.2389 5.17527 26.4422 5.2145 26.4896 5.30866ZM29.6554 5.32435C29.8985 5.4342 30.1297 5.85791 30.1297 6.17961C30.1297 6.30515 30.0882 6.50915 30.0408 6.6347C29.8807 7.04271 29.7029 7.10548 28.6891 7.10548H27.7702L27.616 6.28161C27.533 5.83437 27.4619 5.41066 27.4619 5.34005C27.4619 5.23804 27.6042 5.22235 28.4579 5.2302C29.0626 5.2302 29.525 5.26943 29.6554 5.32435ZM5.69836 8.57275C5.73393 8.73752 6.23785 11.4288 6.8307 14.5595C7.41762 17.6902 7.91562 20.3109 7.9334 20.3815C7.96305 20.5149 7.80298 20.5228 5.14108 20.5228C2.42582 20.5228 2.31318 20.5149 2.3369 20.3815C2.35468 20.2952 2.87046 17.5411 3.48703 14.2614L4.60158 8.28243H5.12329H5.63907L5.69836 8.57275ZM28.2148 14.3634C28.8432 17.6824 29.3531 20.4286 29.359 20.46C29.359 20.4992 29.11 20.5228 28.8017 20.5228C28.1852 20.5228 28.031 20.6091 27.9599 21.0092C27.9302 21.1819 27.9599 21.2682 28.1022 21.4643L28.28 21.6997H29.2049H30.1297V22.555C30.1297 23.6221 30.0586 24.1007 29.8096 24.8147C29.4598 25.7877 28.7484 26.5566 27.9302 26.8391C27.4619 27.0039 25.5588 26.996 25.0668 26.8312C24.5747 26.6665 24.1182 26.3055 23.7269 25.7798C23.0985 24.9403 22.8969 24.1713 22.8969 22.6648V21.6997H24.7585C26.5489 21.6997 26.62 21.6919 26.7742 21.5349C26.9698 21.3309 26.9876 20.9151 26.8098 20.6797C26.6971 20.5306 26.6141 20.5228 25.2031 20.5228C23.8159 20.5228 23.721 20.5149 23.7506 20.3815C23.7684 20.3109 24.2664 17.6902 24.8533 14.5595C25.4462 11.4288 25.9501 8.73752 25.9857 8.57275L26.045 8.27459L26.5608 8.29812L27.0765 8.32166L28.2148 14.3634ZM8.78711 22.6648C8.78711 24.1949 8.56182 24.9952 7.89783 25.8583C7.51248 26.3605 7.10934 26.6665 6.6232 26.8391C6.16078 26.996 4.2103 27.0039 3.77752 26.8469C2.71039 26.4703 1.9219 25.4267 1.64326 23.9987C1.58991 23.7241 1.55433 23.1905 1.55433 22.6256V21.6997H5.17072H8.78711V22.6648Z" fill="white"/>
<path d="M21.1772 13.3827C21.0705 13.5239 21.0586 13.6416 21.0586 14.6146C21.0586 16.1211 20.9756 16.5683 20.4835 17.7296L20.0804 18.679V24.5089V30.3465L20.2523 30.5427C20.4361 30.7546 20.6436 30.7389 20.8392 30.5113C20.9341 30.3936 20.94 30.017 20.94 24.705V19.0242L21.2898 18.2239C21.8234 17.0156 21.9123 16.5369 21.9182 14.9049C21.9182 13.6887 21.9064 13.5396 21.8056 13.3906C21.6574 13.1787 21.3372 13.1709 21.1772 13.3827Z" fill="white"/>
<path d="M12.6799 23.4338L12.5259 23.5907V26.792C12.5259 29.7422 12.5318 30.0012 12.6325 30.1189C12.8221 30.3464 13.0295 30.3621 13.2132 30.1503L13.385 29.9541V26.7999V23.6456L13.2191 23.4573C13.0177 23.2298 12.8873 23.2219 12.6799 23.4338Z" fill="white"/>
</svg>
