<svg width="25" height="30" viewBox="0 0 25 30" fill="none" xmlns="http://www.w3.org/2000/svg">
<path d="M13.7801 0.0854492C11.7001 0.530762 10.1525 2.85107 10.256 5.36475L10.2807 5.90967L10.0293 6.07959C9.50191 6.43115 9.0189 7.15771 8.81189 7.88428C8.75274 8.10107 8.6936 8.50537 8.67388 8.82178L8.64431 9.37842L8.20072 9.69482C7.75714 10.0171 7.35298 10.1987 6.91925 10.2808L6.67774 10.3218L6.76153 10.1812C7.06711 9.68311 7.24455 9.31982 7.33326 8.99756C7.98879 6.70654 6.34752 4.37451 4.32673 4.72607C2.90725 4.97217 1.86235 6.53076 1.98064 8.21826C2.03486 8.92725 2.27637 9.60107 2.66574 10.0991C2.88261 10.3804 2.89246 10.4214 2.75446 10.4214C2.55731 10.4214 1.87221 10.7788 1.54199 11.0601C0.930821 11.5757 0.492162 12.2261 0.245725 12.9937C0.0288601 13.6733 -0.0154986 14.1538 0.00421639 15.6362L0.0190026 16.9546L0.176723 17.3472C0.260511 17.564 0.42316 17.8569 0.536521 18.0034C0.792816 18.3315 1.32512 18.6597 1.69478 18.7124L1.96093 18.7534L1.97572 23.2183L1.9905 27.6772L2.12358 27.9761C2.32073 28.4214 2.46859 28.603 2.8136 28.8257C3.08961 29.0015 3.16354 29.019 3.51841 29.0249C3.97186 29.0249 4.29223 28.8843 4.56824 28.5737L4.72596 28.3862L4.88861 28.5737C5.15969 28.8843 5.48006 29.0249 5.9335 29.0249C6.28837 29.019 6.3623 29.0015 6.63831 28.8257C6.98332 28.603 7.13119 28.4214 7.32834 27.9761L7.46141 27.6772L7.48606 23.1245L7.5107 18.5718L7.71278 18.4019C7.82614 18.3022 7.96414 18.1323 8.02329 18.0151L8.13665 17.8042H8.94497C9.72371 17.8042 9.76314 17.8101 9.86664 17.9331C9.96029 18.0444 10.0638 18.5366 10.4877 20.7925C11.2368 24.812 11.2171 24.7241 11.4093 25.105C11.503 25.2866 11.572 25.4448 11.5671 25.4507C11.5572 25.4565 11.4488 25.5444 11.3206 25.6499C10.6947 26.1479 10.4679 27.1909 10.808 27.9878C10.9904 28.4155 11.1432 28.603 11.4882 28.8257C11.7741 29.0073 11.8332 29.0249 12.2177 29.0249C12.6021 29.0249 12.6612 29.0073 12.9471 28.8257C13.2921 28.603 13.4449 28.4155 13.6273 27.9937C13.8343 27.5015 13.8343 26.9272 13.6174 26.312C13.5928 26.2593 14.2039 26.2417 16.555 26.2417C18.906 26.2417 19.5171 26.2593 19.4925 26.312C19.2756 26.9272 19.2756 27.5015 19.4826 27.9937C19.665 28.4155 19.8178 28.603 20.1628 28.8257C20.4487 29.0073 20.5078 29.0249 20.8923 29.0249C21.2767 29.0249 21.3358 29.0073 21.6217 28.8257C21.9667 28.603 22.1195 28.4155 22.3117 27.9761C22.4202 27.7241 22.4399 27.6011 22.4448 27.1792C22.4448 26.7163 22.4349 26.6577 22.2674 26.3003C22.1097 25.9604 21.8731 25.6733 21.602 25.4917C21.5379 25.4507 21.5478 25.3979 21.6809 25.1519C21.8681 24.8003 21.9076 24.6362 22.223 22.9487C22.4645 21.6421 22.4694 21.5894 22.4694 20.646V19.6792H20.7592H19.044L19.2165 19.521C19.3101 19.439 19.5122 19.2163 19.6699 19.0288C21.0697 17.312 21.2866 14.646 20.1776 12.6479L19.9262 12.1909L21.0845 12.1675C22.1195 12.144 22.2772 12.1265 22.5335 12.0151C23.4207 11.6284 24.022 10.896 24.3227 9.83545C24.4508 9.39014 24.4508 8.40576 24.3227 7.96045C24.0023 6.82959 23.2581 5.9917 22.3314 5.71631L22.0751 5.64014L22.0554 5.0249C22.0259 3.98779 21.7449 3.23779 21.114 2.48193C20.705 1.98975 20.1283 1.62061 19.5615 1.47998C19.1228 1.36865 18.4427 1.39795 18.0434 1.54443L17.7822 1.63818L17.5259 1.36279C16.5007 0.26123 15.1355 -0.20752 13.7801 0.0854492ZM15.6431 1.12842C16.2297 1.35107 16.619 1.64404 17.1365 2.25928L17.59 2.8042L17.8364 2.65771C18.7827 2.08936 19.8868 2.30615 20.6113 3.2085C21.3309 4.10498 21.4837 5.34131 21.0105 6.44873C20.8528 6.81787 20.4487 7.3335 20.1677 7.53271C20.0494 7.61475 19.9558 7.69678 19.9558 7.71436C19.9607 7.73779 20.0297 7.93701 20.1184 8.15967L20.2762 8.55811L20.6606 8.25342C21.0894 7.91357 21.4837 7.39209 21.7055 6.87646C21.8386 6.5542 21.8435 6.5542 22.0209 6.58936C22.6025 6.70654 23.1989 7.26318 23.47 7.94873C23.6129 8.30615 23.6277 8.39404 23.6277 8.89795C23.6277 9.40186 23.6129 9.48975 23.47 9.84717C23.2531 10.3921 22.9771 10.7319 22.5286 10.9956L22.154 11.2124L20.6113 11.23L19.0735 11.2476L18.768 11.0366C18.0286 10.521 17.4471 10.3394 16.555 10.3394C15.6628 10.3394 15.096 10.521 14.3272 11.0483L14.0462 11.2417L12.7795 11.23L11.5128 11.2124L12.543 10.4214C14.0758 9.24365 14.1645 9.12646 14.1645 8.22412C14.1645 7.62061 14.0856 7.36865 13.7949 7.02295C13.4498 6.61279 12.9274 6.45459 12.4937 6.63037C12.3704 6.68311 11.6755 7.15771 10.951 7.69092C10.2215 8.22412 9.59063 8.67529 9.54134 8.69287C9.46741 8.72803 9.46248 8.71045 9.48713 8.54053C9.63499 7.61475 10.1624 6.91162 10.9263 6.63037C11.0643 6.57764 11.1826 6.50732 11.1826 6.47217C11.1826 6.44287 11.1481 6.19092 11.1038 5.91553C10.882 4.53857 11.2418 3.18506 12.0895 2.18896C12.6514 1.52686 13.2576 1.14014 13.9624 0.987793C14.4011 0.894043 15.1995 0.958496 15.6431 1.12842ZM5.53427 5.83936C5.98279 6.08545 6.26866 6.42529 6.49045 6.95264C6.66296 7.37451 6.67281 7.42725 6.67281 7.96045C6.67281 8.49365 6.66296 8.54639 6.49045 8.96826C6.26866 9.50146 5.98279 9.82959 5.52441 10.0874C5.22376 10.2573 5.14983 10.2749 4.72596 10.2749C4.30208 10.2749 4.22815 10.2573 3.9275 10.0874C3.46913 9.82959 3.18326 9.50146 2.96147 8.96826C2.78896 8.54639 2.7791 8.49365 2.7791 7.96631C2.7791 7.45654 2.79389 7.36865 2.93682 7.01123C3.13397 6.51318 3.41491 6.1499 3.78457 5.92139C4.16901 5.67529 4.38587 5.6167 4.83439 5.64014C5.13504 5.65771 5.28783 5.70459 5.53427 5.83936ZM13.2428 7.68506C13.4006 7.87256 13.4449 8.32959 13.3365 8.58154C13.2823 8.71045 12.5183 9.32568 10.3644 10.978C8.76753 12.2026 7.38255 13.2983 7.28398 13.4155C6.91432 13.855 6.69746 14.4761 6.69746 15.1206V15.4604H4.33166H1.96586V15.9292V16.3921L4.55345 16.4097L7.14104 16.4272L7.29876 16.6206C7.43677 16.7847 7.46141 16.8491 7.46141 17.1011C7.46141 17.353 7.43677 17.4175 7.29876 17.5815L7.14104 17.7749L4.48938 17.7925C2.50309 17.8042 1.78842 17.7925 1.62085 17.7339C1.33005 17.6401 0.925892 17.1714 0.842104 16.8315C0.768172 16.5269 0.763244 14.3882 0.837175 13.9019C1.02447 12.6597 1.97572 11.5288 3.02061 11.3062C3.19312 11.2651 4.05072 11.2417 5.10054 11.2417C7.06218 11.2417 7.36777 11.2065 7.96414 10.9019C8.14651 10.8081 9.29984 9.99951 10.5172 9.10889C12.6169 7.56787 12.745 7.48584 12.9274 7.50928C13.0408 7.52686 13.1689 7.60303 13.2428 7.68506ZM17.6146 11.4409C18.1716 11.6519 18.5905 11.9624 19.044 12.5015C19.4925 13.0347 19.7537 13.5269 19.941 14.2007C20.0544 14.6167 20.0692 14.7632 20.0692 15.4604C20.0692 16.1577 20.0544 16.3042 19.941 16.7202C19.7537 17.394 19.4925 17.8862 19.044 18.4194C18.5955 18.9526 18.1814 19.2632 17.6146 19.4858C17.2647 19.6206 17.1415 19.6382 16.555 19.6382C15.9684 19.6382 15.8452 19.6206 15.4953 19.4858C14.9334 19.2632 14.5194 18.9585 14.0659 18.4194C13.6174 17.8862 13.3562 17.394 13.1689 16.7202C13.0555 16.3042 13.0408 16.1577 13.0408 15.4604C13.0358 14.769 13.0555 14.6108 13.164 14.2183C13.3611 13.5151 13.6174 13.0229 14.061 12.5015C14.6229 11.8394 15.2291 11.4526 15.9339 11.3003C16.3726 11.2065 17.171 11.271 17.6146 11.4409ZM10.9608 12.1265C11.0693 12.1499 11.6163 12.1733 12.1733 12.1792H13.1935L12.9274 12.6597C12.0994 14.1597 11.9959 16.0933 12.6662 17.7163C12.9028 18.2964 13.3956 19.0522 13.7653 19.3921L14.0413 19.6499L12.5824 19.6675C11.7741 19.6733 11.1087 19.6733 11.0988 19.6616C11.0939 19.6499 11.0052 19.2222 10.9066 18.7065C10.7242 17.728 10.606 17.394 10.3595 17.1831C10.049 16.9077 9.99972 16.896 9.11747 16.8667L8.25987 16.8374L8.18594 16.562C8.10215 16.2397 7.84093 15.853 7.62406 15.7183L7.4762 15.6245L7.49591 15.1499C7.52056 14.6401 7.62406 14.3062 7.83107 14.0835C7.89021 14.019 8.50631 13.5269 9.20126 12.9878C10.5715 11.9214 10.4334 11.9917 10.9608 12.1265ZM6.6876 23.1304C6.67281 27.4604 6.67281 27.5249 6.56931 27.6831C6.37709 27.9937 6.21937 28.0874 5.90886 28.0874C5.59835 28.0874 5.44063 27.9937 5.2484 27.6831C5.1449 27.5249 5.1449 27.4546 5.13011 23.5991L5.12026 19.6792H4.72596H4.33166L4.3218 23.5991C4.30701 27.4546 4.30701 27.5249 4.20351 27.6831C4.01129 27.9937 3.85357 28.0874 3.54306 28.0874C3.23255 28.0874 3.07483 27.9937 2.88261 27.6831C2.7791 27.5249 2.7791 27.4604 2.76432 23.1304L2.75446 18.7417H4.72596H6.69746L6.6876 23.1304ZM21.6809 21.0562C21.6809 21.3784 21.6069 21.894 21.4098 22.9487C21.0993 24.5894 21.0204 24.8062 20.6261 25.0991L20.3846 25.2749H16.555H12.7253L12.4838 25.0991C12.0747 24.7944 12.0156 24.6245 11.6262 22.5562C11.4389 21.5425 11.2812 20.6929 11.2812 20.6636C11.2812 20.6401 13.6223 20.6167 16.481 20.6167H21.6809V21.0562ZM12.5282 26.3237C13.0358 26.5757 13.159 27.3608 12.7647 27.8296C12.4444 28.2104 11.9909 28.2104 11.6706 27.8296C11.0594 27.1089 11.7346 25.9253 12.5282 26.3237ZM21.2028 26.3237C21.7104 26.5757 21.8336 27.3608 21.4393 27.8296C21.119 28.2104 20.6655 28.2104 20.3452 27.8296C19.734 27.1089 20.4092 25.9253 21.2028 26.3237Z" fill="white"/>
<path d="M14.013 1.93703C13.8799 1.96632 13.5891 2.09523 13.3673 2.21828C12.6182 2.64601 12.0168 3.57765 11.8739 4.52687C11.7753 5.1714 11.7606 5.14796 12.2091 5.14796H12.5984L12.628 4.83156C12.6724 4.4214 12.8942 3.87062 13.1554 3.54249C13.4068 3.21437 13.9391 2.88624 14.3087 2.83351L14.5798 2.79249V2.3296V1.86671L14.4221 1.87257C14.3334 1.87843 14.151 1.90187 14.013 1.93703Z" fill="white"/>
<path d="M18.9173 3.72998V4.19873L19.0898 4.23389C19.3412 4.29248 19.5975 4.58545 19.6665 4.89014L19.7256 5.14795H20.115H20.5044L20.4699 4.8667C20.4304 4.521 20.1791 3.9585 19.9869 3.76514C19.7651 3.54248 19.4102 3.34912 19.149 3.30225L18.9173 3.26123V3.72998Z" fill="white"/>
<path d="M14.9754 7.02295V7.4917H15.3697H15.764V7.02295V6.5542H15.3697H14.9754V7.02295Z" fill="white"/>
<path d="M16.5509 7.02295V7.4917H16.9453H17.3396V7.02295V6.5542H16.9453H16.5509V7.02295Z" fill="white"/>
<path d="M18.1286 7.02295V7.4917H18.5229H18.9172V7.02295V6.5542H18.5229H18.1286V7.02295Z" fill="white"/>
<path d="M16.1564 12.6479V13.1167H15.7621H15.3678V13.9136C15.3678 14.9097 15.4121 15.1089 15.7374 15.4897C15.9888 15.7944 16.2401 15.9292 16.5457 15.9292C16.802 15.9292 16.945 16.146 16.945 16.5444V16.8667H16.6739C16.4471 16.8667 16.3781 16.8433 16.2796 16.7202C16.2106 16.644 16.1564 16.5386 16.1564 16.4858C16.1564 16.4155 16.0824 16.3979 15.7621 16.3979C15.3234 16.3979 15.3185 16.3979 15.4269 16.8198C15.4959 17.1011 15.8015 17.5288 16.0085 17.6284L16.1564 17.6987V18.2202V18.7417H16.5507H16.945V18.2729V17.8042H17.3393H17.7336V17.0073C17.7336 16.0112 17.6892 15.812 17.3639 15.4312C17.1125 15.1265 16.8612 14.9917 16.5556 14.9917C16.2993 14.9917 16.1564 14.7749 16.1564 14.3765V14.0542H16.4274C16.6542 14.0542 16.7232 14.0776 16.8217 14.2007C16.8907 14.2769 16.945 14.3823 16.945 14.4351C16.945 14.5054 17.0189 14.5229 17.3393 14.5229C17.7779 14.5229 17.7828 14.5229 17.6744 14.1011C17.6054 13.8198 17.2998 13.3921 17.0928 13.2925L16.945 13.2222V12.7007V12.1792H16.5507H16.1564V12.6479Z" fill="white"/>
<path d="M13.7922 22.9604V24.3667H14.1865H14.5808V22.9604V21.5542H14.1865H13.7922V22.9604Z" fill="white"/>
<path d="M16.1586 22.9604V24.3667H16.5529H16.9472V22.9604V21.5542H16.5529H16.1586V22.9604Z" fill="white"/>
<path d="M18.5249 22.9604V24.3667H18.9192H19.3135V22.9604V21.5542H18.9192H18.5249V22.9604Z" fill="white"/>
</svg>
