<svg width="34" height="26" viewBox="0 0 34 26" fill="none" xmlns="http://www.w3.org/2000/svg">
<path d="M13.8091 2.40076L13.4571 4.81419L11.6177 4.82689L9.77158 4.84594L11.3122 6.94181C12.1556 8.09772 12.8927 9.1012 12.9524 9.18376L13.0587 9.32349L13.4306 9.06309C13.6431 8.92337 13.8091 8.78364 13.8091 8.75188C13.8091 8.72013 13.3309 8.04056 12.7466 7.24667L11.6841 5.79861L13.0056 5.77956L14.3204 5.76686L14.5661 4.033C14.7056 3.08668 14.8384 2.25468 14.8649 2.18482C14.9048 2.08955 15.1372 2.29279 16.2263 3.39153C16.9501 4.12191 17.5677 4.72527 17.6009 4.73797C17.6341 4.75067 18.1188 4.44582 18.6766 4.0584C19.2411 3.67098 19.7192 3.35343 19.7391 3.35343C19.7657 3.35343 19.7856 3.60747 19.7856 3.92503V4.49663H20.2903H20.7884L20.7419 3.01682C20.7153 2.21022 20.6888 1.537 20.6821 1.5243C20.6688 1.5116 20.0181 1.94983 19.2345 2.48967C18.4509 3.03587 17.7802 3.48045 17.747 3.48045C17.7138 3.48045 16.9169 2.69926 15.9739 1.74659C15.0309 0.800274 14.2341 0.0127337 14.2075 3.14675e-05C14.1809 -0.00631966 14.0017 1.06702 13.8091 2.40076Z" fill="white"/>
<path d="M19.1582 6.06536C18.6867 6.30035 18.5273 6.53534 17.4582 8.57405L16.4023 10.5937H10.0273C3.87813 10.5937 3.63906 10.6001 3.4 10.7144C3.07461 10.8732 2.82227 11.1336 2.66289 11.4829C2.58984 11.6416 2.3043 12.7531 2.02539 13.9471L1.51406 16.1255L0.757031 17.3323L0 18.539V21.5621C0 23.6389 0.0265625 24.6615 0.0730469 24.8266C0.179297 25.1505 0.484766 25.4935 0.816797 25.6649C1.05586 25.7856 1.22188 25.8047 2.04531 25.8237C2.62969 25.8364 3.12109 25.8174 3.30703 25.7729C3.99766 25.6141 4.40273 25.1314 4.48242 24.363L4.52891 23.9311H6.68047H8.83203V23.4547V22.9784H4.91406H0.996094V21.8035C0.996094 21.1556 1.00273 20.6285 1.01602 20.6285C1.02266 20.6285 1.17539 20.6984 1.34805 20.7809C1.83945 21.0223 2.26445 21.0794 3.41992 21.0604L4.48242 21.0413L4.50234 20.1013L4.52227 19.1677H10.3594H16.2031V20.1268V21.0858L17.4848 21.0604L18.7598 21.0413L19.218 20.8317C19.4637 20.7238 19.6828 20.6285 19.6961 20.6285C19.716 20.6285 19.716 21.1493 19.7094 21.7844L19.6895 22.9467L15.7582 22.9657L11.8203 22.9784V23.4547V23.9311H14.0117H16.2031V24.2931C16.2098 24.9028 16.502 25.3982 17.0332 25.6649C17.259 25.7856 17.4316 25.8047 18.275 25.8237C19.4504 25.8555 19.8355 25.7729 20.2141 25.4172C20.6855 24.979 20.6855 25.0044 20.7055 22.2925C20.7254 20.4507 20.7453 19.86 20.8051 19.8854C20.8516 19.8981 22.5516 20.3046 24.5902 20.7936C28.0699 21.6256 28.2957 21.6828 28.2559 21.8035C28.2293 21.8733 28.1961 22.1337 28.1762 22.3814C28.1363 22.8958 28.2492 23.1816 28.6344 23.531C28.9 23.7723 28.9996 23.8104 30.0355 24.0645C30.9453 24.2867 31.357 24.2867 31.782 24.0772C32.3465 23.7977 32.373 23.7278 33.2297 20.4761L34 17.5101L33.5684 16.1382L33.1301 14.7728L33.1965 12.5181C33.2695 10.2952 33.2496 9.90779 33.057 9.55213C32.9508 9.35524 32.6652 9.06944 32.466 8.96782C32.3133 8.89796 26.8016 7.54517 26.6422 7.54517C26.5691 7.54517 26.3566 8.38987 26.4164 8.44068C26.443 8.45973 27.5719 8.73918 28.9199 9.06309C30.2746 9.38064 31.5363 9.6855 31.7289 9.74266C32.2867 9.89509 32.2867 9.89509 32.2137 12.2132C32.1805 13.2866 32.134 14.1757 32.1141 14.1948C32.0941 14.2139 30.2945 13.801 28.1098 13.2802L24.1387 12.3339L24.0922 11.8893C24.0191 11.1145 23.7402 10.5683 23.1625 10.0412C22.5914 9.52672 21.8875 9.25997 21.1172 9.25997C20.0879 9.26632 19.0586 9.82522 18.5805 10.6382C18.4676 10.8287 18.3414 10.9684 18.3016 10.9557C18.2617 10.9367 18.0559 10.8922 17.85 10.8478C17.6375 10.8033 17.4648 10.7398 17.4648 10.708C17.4648 10.6001 19.2777 7.18951 19.4105 7.04978C19.4902 6.96722 19.623 6.91006 19.7359 6.91006C19.8422 6.91006 21.1172 7.19586 22.5781 7.54517C24.0391 7.89448 25.2742 8.18028 25.3207 8.18028C25.4004 8.18028 25.6594 7.36099 25.5996 7.30383C25.5863 7.29112 24.3379 6.97992 22.8305 6.6179C19.975 5.93198 19.5434 5.86847 19.1582 6.06536ZM22.0137 10.4222C22.5914 10.7017 23.0031 11.2415 23.0828 11.8258L23.1227 12.0989L21.2566 11.6543L19.3906 11.2098L19.5102 11.0256C19.9484 10.2952 21.1637 10.0031 22.0137 10.4222ZM16.9934 11.6861C17.166 11.8576 17.1195 11.7052 17.5977 13.7693C17.8234 14.7283 18.0227 15.5793 18.0426 15.6556L18.0758 15.8016H14.025H9.97422L9.93438 15.5857C9.8082 14.9569 9.09766 14.0932 8.43359 13.7693C6.74023 12.9436 4.72813 13.7756 4.18359 15.5285L4.09727 15.8016H3.37344C2.82891 15.8016 2.65625 15.7826 2.65625 15.7191C2.65625 15.5984 3.51953 11.9211 3.56602 11.8385C3.58594 11.8004 3.65234 11.7179 3.70547 11.6543C3.79844 11.5527 4.19688 11.5464 10.3328 11.5464H16.8605L16.9934 11.6861ZM25.334 13.5978L32.2402 15.2618L32.4859 16.0176C32.6254 16.4367 32.7184 16.7924 32.7051 16.8051C32.6852 16.8305 20.3801 13.9154 18.7863 13.5152L18.5473 13.4517L18.4012 12.8039C18.3215 12.4419 18.2352 12.0989 18.2219 12.0354C18.1953 11.9592 18.2219 11.9274 18.3082 11.9338C18.3746 11.9338 21.5355 12.6896 25.334 13.5978ZM7.72305 14.506C8.21445 14.6648 8.78555 15.211 8.93164 15.6556L8.97148 15.8016H7.0457H5.11328L5.21289 15.5666C5.61133 14.6521 6.72695 14.1821 7.72305 14.506ZM24.1586 15.7762C27.034 16.4622 29.4113 17.0465 29.4379 17.0719C29.4645 17.0973 29.3848 17.5101 29.2586 17.9991C29.1324 18.4818 29.0328 18.8819 29.0395 18.8946C29.0461 18.901 29.5309 19.0217 30.1086 19.1614C31.2043 19.4345 31.7953 19.4853 32.2004 19.3519C32.3199 19.3138 32.4328 19.2948 32.4527 19.3138C32.5125 19.3773 31.9348 21.5176 31.8484 21.5176C31.8086 21.5176 29.2852 20.927 26.2504 20.203C20.8715 18.92 20.7188 18.8756 20.7188 18.7359C20.7188 18.6533 20.4465 18.1516 20.1211 17.6308C19.7891 17.1036 19.5301 16.6654 19.5367 16.6527C19.55 16.64 21.4559 17.0909 23.7734 17.6435C26.091 18.2024 28.0102 18.6596 28.0301 18.6596C28.0898 18.6596 28.2824 17.8086 28.2359 17.7641C28.2094 17.7387 26.1441 17.2306 23.6406 16.6273C21.1438 16.0303 19.0785 15.5285 19.052 15.5095C19.032 15.4968 18.9723 15.3126 18.9324 15.0967C18.8859 14.8871 18.8328 14.6711 18.8129 14.6203C18.793 14.5695 18.8129 14.5314 18.8527 14.5314C18.8926 14.5314 21.2766 15.0903 24.1586 15.7762ZM18.8461 17.472C19.0852 17.8467 19.2645 18.1706 19.2445 18.1833C19.2246 18.2024 15.207 18.2087 10.3063 18.2024L1.39453 18.1833L1.84609 17.4656L2.29102 16.7543L10.3527 16.767L18.4211 16.7861L18.8461 17.472ZM31.7156 17.5863L32.8113 17.853L32.632 18.0309C32.3598 18.2976 31.948 18.4691 31.5695 18.4691C31.2973 18.4691 30.3211 18.2722 30.248 18.2024C30.1883 18.1452 30.4473 17.3259 30.527 17.3259C30.5734 17.3259 31.1113 17.4466 31.7156 17.5863ZM3.45313 19.6441V20.1204H2.90859C2.27773 20.1204 1.97227 20.0505 1.65352 19.8473C1.44102 19.7139 1.12891 19.3392 1.12891 19.2249C1.12891 19.1931 1.65352 19.1677 2.29102 19.1677H3.45313V19.6441ZM19.4836 19.371C19.2047 19.8854 18.6668 20.1204 17.7504 20.1204H17.1992V19.6441V19.1677H18.3945H19.5965L19.4836 19.371ZM31.6359 22.6545C31.5363 23.0419 31.4168 23.2261 31.2375 23.2706C30.9984 23.3277 29.5176 22.9911 29.3051 22.8323C29.1391 22.7053 29.0992 22.3623 29.2121 22.0702L29.2785 21.9114L30.4738 22.1972L31.6758 22.483L31.6359 22.6545ZM3.45313 24.274C3.45313 24.5725 3.42656 24.6361 3.27383 24.7567C3.10117 24.8837 3.02813 24.8901 2.17148 24.871C1.29492 24.852 1.2418 24.8456 1.12227 24.6996C1.03594 24.5979 0.996094 24.4519 0.996094 24.2423V23.9311H2.22461H3.45313V24.274ZM19.7094 24.2613C19.6828 24.5217 19.6363 24.6234 19.4902 24.744C19.3109 24.8901 19.2777 24.8901 18.3813 24.871C17.498 24.852 17.4449 24.8456 17.3254 24.6996C17.2391 24.5979 17.1992 24.4519 17.1992 24.2423V23.9311H18.4676H19.7426L19.7094 24.2613Z" fill="white"/>
<path d="M13.2091 12.9754V13.4518H13.7071H14.2052V12.9754V12.4991H13.7071H13.2091V12.9754Z" fill="white"/>
<path d="M15.2014 12.9754V13.4518H15.6994H16.1975V12.9754V12.4991H15.6994H15.2014V12.9754Z" fill="white"/>
<path d="M28.0246 10.2572C27.9715 10.4604 27.9183 10.6573 27.9051 10.7017C27.8719 10.778 28.164 10.8796 28.6222 10.9494L28.8547 10.9875L28.941 10.6128C28.9941 10.4096 29.0472 10.2127 29.0605 10.1683C29.0937 10.092 28.8015 9.99042 28.3433 9.92056L28.1109 9.88245L28.0246 10.2572Z" fill="white"/>
<path d="M29.9422 10.7335C29.8891 10.9558 29.8492 11.159 29.8492 11.1908C29.8492 11.2416 30.7524 11.502 30.7856 11.4639C30.8121 11.4194 31.0114 10.5747 30.9981 10.562C30.9715 10.5366 30.1746 10.3397 30.0949 10.3397C30.0617 10.3397 29.9953 10.5175 29.9422 10.7335Z" fill="white"/>
<path d="M5.45327 20.5777L5.47319 21.0414L10.3408 21.0604L15.2017 21.0731V20.5968V20.1205H10.3208H5.43335L5.45327 20.5777Z" fill="white"/>
<path d="M9.8252 23.4548V23.9312H10.3232H10.8213V23.4548V22.9785H10.3232H9.8252V23.4548Z" fill="white"/>
</svg>
